<svg xmlns="http://www.w3.org/2000/svg" xmlns:xlink="http://www.w3.org/1999/xlink" version="1.1" width="256" height="256" viewBox="0 0 256 256" xml:space="preserve">

<defs>
</defs>
<g style="stroke: none; stroke-width: 0; stroke-dasharray: none; stroke-linecap: butt; stroke-linejoin: miter; stroke-miterlimit: 10; fill: none; fill-rule: nonzero; opacity: 1;" transform="translate(40.54163424124515 40.54163424124512) scale(1.93 1.93)" >
	<path d="M 11.06 26.251 c -0.125 0 -0.251 -0.024 -0.375 -0.073 c -0.512 -0.207 -0.759 -0.79 -0.552 -1.302 c 3.646 -9.015 10.849 -16.421 19.761 -20.321 c 0.506 -0.223 1.096 0.009 1.317 0.515 c 0.222 0.506 -0.009 1.096 -0.515 1.317 c -8.438 3.692 -15.257 10.704 -18.708 19.239 C 11.83 26.015 11.456 26.251 11.06 26.251 z" style="stroke: none; stroke-width: 1; stroke-dasharray: none; stroke-linecap: butt; stroke-linejoin: miter; stroke-miterlimit: 10; fill: rgb(0,0,0); fill-rule: nonzero; opacity: 1;" transform=" matrix(1 0 0 1 0 0) " stroke-linecap="round" />
	<path d="M 6.952 16.953 c -0.169 0 -0.341 -0.043 -0.499 -0.134 c -0.479 -0.276 -0.642 -0.888 -0.366 -1.366 C 9.638 9.303 14.67 4.015 20.64 0.16 c 0.463 -0.301 1.083 -0.167 1.382 0.297 c 0.3 0.464 0.167 1.083 -0.297 1.382 c -5.704 3.684 -10.513 8.737 -13.905 14.613 C 7.634 16.774 7.298 16.953 6.952 16.953 z" style="stroke: none; stroke-width: 1; stroke-dasharray: none; stroke-linecap: butt; stroke-linejoin: miter; stroke-miterlimit: 10; fill: rgb(0,0,0); fill-rule: nonzero; opacity: 1;" transform=" matrix(1 0 0 1 0 0) " stroke-linecap="round" />
	<path d="M 78.939 26.251 c -0.396 0 -0.77 -0.236 -0.927 -0.625 c -3.452 -8.535 -10.271 -15.547 -18.709 -19.239 c -0.507 -0.221 -0.737 -0.811 -0.516 -1.317 c 0.221 -0.506 0.812 -0.738 1.316 -0.515 c 8.913 3.899 16.116 11.306 19.762 20.321 c 0.207 0.512 -0.04 1.095 -0.552 1.302 C 79.191 26.228 79.064 26.251 78.939 26.251 z" style="stroke: none; stroke-width: 1; stroke-dasharray: none; stroke-linecap: butt; stroke-linejoin: miter; stroke-miterlimit: 10; fill: rgb(0,0,0); fill-rule: nonzero; opacity: 1;" transform=" matrix(1 0 0 1 0 0) " stroke-linecap="round" />
	<path d="M 83.048 16.953 c -0.346 0 -0.682 -0.179 -0.867 -0.5 C 78.788 10.577 73.979 5.524 68.274 1.84 c -0.464 -0.299 -0.597 -0.918 -0.297 -1.382 c 0.299 -0.464 0.917 -0.598 1.383 -0.297 c 5.97 3.855 11.002 9.144 14.553 15.293 c 0.276 0.479 0.112 1.09 -0.366 1.366 C 83.39 16.91 83.218 16.953 83.048 16.953 z" style="stroke: none; stroke-width: 1; stroke-dasharray: none; stroke-linecap: butt; stroke-linejoin: miter; stroke-miterlimit: 10; fill: rgb(0,0,0); fill-rule: nonzero; opacity: 1;" transform=" matrix(1 0 0 1 0 0) " stroke-linecap="round" />
	<path d="M 83.001 66.163 h -1.287 c -3.348 0 -6.07 -2.724 -6.07 -6.071 V 39.967 c 0 -14.886 -10.672 -27.321 -24.766 -30.071 V 7.934 c 0 -3.241 -2.637 -5.878 -5.878 -5.878 s -5.878 2.637 -5.878 5.878 v 1.962 c -14.093 2.75 -24.765 15.185 -24.765 30.071 v 20.125 c 0 3.348 -2.723 6.071 -6.071 6.071 H 6.999 c -3.701 0 -6.711 3.011 -6.711 6.711 s 3.011 6.711 6.711 6.711 h 26.637 C 34.145 85.412 39.043 90 45 90 c 5.956 0 10.855 -4.588 11.364 -10.415 h 26.637 c 3.7 0 6.711 -3.011 6.711 -6.711 S 86.701 66.163 83.001 66.163 z M 41.122 7.934 c 0 -2.138 1.74 -3.878 3.878 -3.878 c 2.139 0 3.878 1.74 3.878 3.878 v 1.644 C 47.607 9.417 46.314 9.324 45 9.324 s -2.607 0.093 -3.878 0.254 V 7.934 z M 45 88 c -4.854 0 -8.861 -3.692 -9.362 -8.415 h 18.725 C 53.861 84.308 49.854 88 45 88 z M 83.001 77.585 H 56.415 h -22.83 H 6.999 c -2.598 0 -4.711 -2.113 -4.711 -4.711 s 2.114 -4.711 4.711 -4.711 h 1.287 c 4.45 0 8.071 -3.621 8.071 -8.071 V 39.967 c 0 -15.794 12.849 -28.643 28.643 -28.643 s 28.644 12.849 28.644 28.643 v 20.125 c 0 4.45 3.62 8.071 8.07 8.071 h 1.287 c 2.598 0 4.711 2.113 4.711 4.711 S 85.599 77.585 83.001 77.585 z" style="stroke: none; stroke-width: 1; stroke-dasharray: none; stroke-linecap: butt; stroke-linejoin: miter; stroke-miterlimit: 10; fill: rgb(0,0,0); fill-rule: nonzero; opacity: 1;" transform=" matrix(1 0 0 1 0 0) " stroke-linecap="round" />
</g>
</svg>